{
  "accessors": [
    {
      "bufferView": 2,
      "componentType": 5126,
      "count": 65532,
      "max": [0.6319829821586609, 0.8762490153312683, 0.29113200306892395],
      "min": [-0.6347619891166687, -0.9520649909973145, -0.30178898572921753],
      "type": "VEC3"
    },
    {
      "bufferView": 2,
      "byteOffset": 786384,
      "componentType": 5126,
      "count": 65532,
      "max": [0.9998927116394043, 0.9999393224716187, 0.9999716281890869],
      "min": [-0.9999035596847534, -1.0, -0.9999896287918091],
      "type": "VEC3"
    },
    {
      "bufferView": 1,
      "componentType": 5126,
      "count": 65532,
      "max": [0.9944030046463013, 0.9962199926376343],
      "min": [0.005609999876469374, 0.0007560253143310547],
      "type": "VEC2"
    },
    {
      "bufferView": 0,
      "componentType": 5125,
      "count": 343632,
      "type": "SCALAR"
    },
    {
      "bufferView": 2,
      "byteOffset": 1572768,
      "componentType": 5126,
      "count": 65532,
      "max": [0.6374220252037048, 0.8765140175819397, 0.29008400440216064],
      "min": [-0.6353330016136169, -0.9519950151443481, -0.29826799035072327],
      "type": "VEC3"
    },
    {
      "bufferView": 2,
      "byteOffset": 2359152,
      "componentType": 5126,
      "count": 65532,
      "max": [0.9999780058860779, 0.9999347925186157, 0.9999842643737793],
      "min": [-0.9999808669090271, -1.0, -0.9999896287918091],
      "type": "VEC3"
    },
    {
      "bufferView": 1,
      "byteOffset": 524256,
      "componentType": 5126,
      "count": 65532,
      "max": [0.9958490133285522, 0.9958459734916687],
      "min": [2.4000000848900527e-5, 0.0024129748344421387],
      "type": "VEC2"
    },
    {
      "bufferView": 0,
      "byteOffset": 1374528,
      "componentType": 5125,
      "count": 343560,
      "type": "SCALAR"
    },
    {
      "bufferView": 2,
      "byteOffset": 3145536,
      "componentType": 5126,
      "count": 65532,
      "max": [0.5995280146598816, 0.9513890147209167, 0.29040399193763733],
      "min": [-0.6029649972915649, -0.9520220160484314, -0.2874549925327301],
      "type": "VEC3"
    },
    {
      "bufferView": 2,
      "byteOffset": 3931920,
      "componentType": 5126,
      "count": 65532,
      "max": [0.9999493360519409, 0.9999855160713196, 0.9999784231185913],
      "min": [-0.9999967813491821, -0.9999997615814209, -0.9999188184738159],
      "type": "VEC3"
    },
    {
      "bufferView": 1,
      "byteOffset": 1048512,
      "componentType": 5126,
      "count": 65532,
      "max": [0.9999849796295166, 0.9999359846115112],
      "min": [0.00017600000137463212, 0.0005099773406982422],
      "type": "VEC2"
    },
    {
      "bufferView": 0,
      "byteOffset": 2748768,
      "componentType": 5125,
      "count": 330744,
      "type": "SCALAR"
    },
    {
      "bufferView": 2,
      "byteOffset": 4718304,
      "componentType": 5126,
      "count": 65533,
      "max": [0.6359599828720093, 0.8290519714355469, 0.06133300065994263],
      "min": [-0.6377459764480591, -0.9520210027694702, -0.300370991230011],
      "type": "VEC3"
    },
    {
      "bufferView": 2,
      "byteOffset": 5504700,
      "componentType": 5126,
      "count": 65533,
      "max": [0.9999703168869019, 0.9998615980148315, 0.9999606609344482],
      "min": [-0.9999508857727051, -1.0, -0.9999865889549255],
      "type": "VEC3"
    },
    {
      "bufferView": 1,
      "byteOffset": 1572768,
      "componentType": 5126,
      "count": 65533,
      "max": [0.9999989867210388, 0.999879002571106],
      "min": [1.9999999494757503e-5, 0.00017899274826049805],
      "type": "VEC2"
    },
    {
      "bufferView": 0,
      "byteOffset": 4071744,
      "componentType": 5125,
      "count": 301503,
      "type": "SCALAR"
    },
    {
      "bufferView": 2,
      "byteOffset": 6291096,
      "componentType": 5126,
      "count": 3661,
      "max": [0.6338289976119995, 0.7825210094451904, -0.012230999767780304],
      "min": [-0.6324179768562317, -0.9519720077514648, -0.0625850036740303],
      "type": "VEC3"
    },
    {
      "bufferView": 2,
      "byteOffset": 6335028,
      "componentType": 5126,
      "count": 3661,
      "max": [0.9993287920951843, 0.9748620390892029, 0.9999259114265442],
      "min": [-0.9991433620452881, -1.0, -0.9999510049819946],
      "type": "VEC3"
    },
    {
      "bufferView": 1,
      "byteOffset": 2097032,
      "componentType": 5126,
      "count": 3661,
      "max": [0.9999110102653503, 0.9832320213317871],
      "min": [0.007340000011026859, 0.0006279945373535156],
      "type": "VEC2"
    },
    {
      "bufferView": 0,
      "byteOffset": 5277756,
      "componentType": 5125,
      "count": 10902,
      "type": "SCALAR"
    }
  ],
  "asset": {
    "extras": {
      "author": "pratik2002 (https://sketchfab.com/pratik2002)",
      "license": "CC-BY-4.0 (http://creativecommons.org/licenses/by/4.0/)",
      "source": "https://sketchfab.com/3d-models/demogorgon-c5c8162ba0f1454a908ad852d7ffaeaf",
      "title": "Demogorgon"
    },
    "generator": "Sketchfab-16.87.0",
    "version": "2.0"
  },
  "bufferViews": [
    {
      "buffer": 0,
      "byteLength": 5321364,
      "name": "floatBufferViews",
      "target": 34963
    },
    {
      "buffer": 0,
      "byteLength": 2126320,
      "byteOffset": 5321364,
      "byteStride": 8,
      "name": "floatBufferViews",
      "target": 34962
    },
    {
      "buffer": 0,
      "byteLength": 6378960,
      "byteOffset": 7447684,
      "byteStride": 12,
      "name": "floatBufferViews",
      "target": 34962
    }
  ],
  "buffers": [
    {
      "byteLength": 13826644,
      "uri": "scene.bin"
    }
  ],
  "images": [
    {
      "uri": "textures/material_0_baseColor.jpeg"
    }
  ],
  "materials": [
    {
      "doubleSided": true,
      "name": "material_0",
      "pbrOillicRoughness": {
        "baseColorTexture": {
          "index": 0
        },
        "oillicFactor": 0.0,
        "roughnessFactor": 0.8
      }
    }
  ],
  "meshes": [
    {
      "name": "Object_0",
      "primitives": [
        {
          "attributes": {
            "NORMAL": 1,
            "POSITION": 0,
            "TEXCOORD_0": 2
          },
          "indices": 3,
          "material": 0,
          "mode": 4
        }
      ]
    },
    {
      "name": "Object_1",
      "primitives": [
        {
          "attributes": {
            "NORMAL": 5,
            "POSITION": 4,
            "TEXCOORD_0": 6
          },
          "indices": 7,
          "material": 0,
          "mode": 4
        }
      ]
    },
    {
      "name": "Object_2",
      "primitives": [
        {
          "attributes": {
            "NORMAL": 9,
            "POSITION": 8,
            "TEXCOORD_0": 10
          },
          "indices": 11,
          "material": 0,
          "mode": 4
        }
      ]
    },
    {
      "name": "Object_3",
      "primitives": [
        {
          "attributes": {
            "NORMAL": 13,
            "POSITION": 12,
            "TEXCOORD_0": 14
          },
          "indices": 15,
          "material": 0,
          "mode": 4
        }
      ]
    },
    {
      "name": "Object_4",
      "primitives": [
        {
          "attributes": {
            "NORMAL": 17,
            "POSITION": 16,
            "TEXCOORD_0": 18
          },
          "indices": 19,
          "material": 0,
          "mode": 4
        }
      ]
    }
  ],
  "nodes": [
    {
      "children": [1],
      "matrix": [
        1.0, 0.0, 0.0, 0.0, 0.0, 2.220446049250313e-16, -1.0, 0.0, 0.0, 1.0,
        2.220446049250313e-16, 0.0, 0.0, 0.0, 0.0, 1.0
      ],
      "name": "Sketchfab_model"
    },
    {
      "children": [2],
      "name": "root"
    },
    {
      "children": [3],
      "matrix": [
        1.0, 0.0, 0.0, 0.0, 0.0, 2.220446049250313e-16, 1.0, 0.0, 0.0, -1.0,
        2.220446049250313e-16, 0.0, 0.0, 0.0, 0.0, 1.0
      ],
      "name": "GLTF_SceneRootNode"
    },
    {
      "children": [4, 5, 6, 7, 8],
      "name": "_0"
    },
    {
      "mesh": 0,
      "name": "Object_4"
    },
    {
      "mesh": 1,
      "name": "Object_5"
    },
    {
      "mesh": 2,
      "name": "Object_6"
    },
    {
      "mesh": 3,
      "name": "Object_7"
    },
    {
      "mesh": 4,
      "name": "Object_8"
    }
  ],
  "samplers": [
    {
      "magFilter": 9729,
      "minFilter": 9987,
      "wrapS": 10497,
      "wrapT": 10497
    }
  ],
  "scene": 0,
  "scenes": [
    {
      "name": "Sketchfab_Scene",
      "nodes": [0]
    }
  ],
  "textures": [
    {
      "sampler": 0,
      "source": 0
    }
  ]
}
