<svg width="21" height="21" viewBox="0 0 21 21" fill="none" xmlns="http://www.w3.org/2000/svg">
<path d="M17.5 0L16.41 2.41L14 3.5L16.41 4.59L17.5 7L18.6 4.59L21 3.5L18.6 2.41M10 1C4.5 1 0 5.5 0 11V21H20V11C20 9.53 19.67 8.13 19.1 6.87L17.86 9.57C17.95 10.04 18 10.5 18 11C18 15.43 14.43 19 10 19C5.57 19 2 15.43 2 11C2 10.95 2 10.91 2 10.86C4.61 9.89 6.69 7.88 7.74 5.31C9.61 7.61 12.44 9 15.5 9C15.94 9 16.39 8.97 16.83 8.91L15.96 7C15.81 7 15.65 7 15.5 7C12.68 7 10.1 5.5 8.66 3.12C9.1 3.05 9.54 3 10 3C10.5 3 10.96 3.05 11.42 3.13L14.13 1.91C12.87 1.33 11.47 1 10 1ZM6.09 4C5.46 5.91 4.15 7.5 2.41 8.5C3.04 6.57 4.37 5 6.09 4ZM7 10.75C6.31 10.75 5.75 11.31 5.75 12C5.75 12.69 6.31 13.25 7 13.25C7.69 13.25 8.25 12.69 8.25 12C8.25 11.31 7.69 10.75 7 10.75ZM13 10.75C12.31 10.75 11.75 11.31 11.75 12C11.75 12.69 12.31 13.25 13 13.25C13.69 13.25 14.25 12.69 14.25 12C14.25 11.31 13.69 10.75 13 10.75ZM2 16.97C2.58 17.74 3.26 18.42 4.03 19H2M18 16.97V19H15.97C16.74 18.42 17.42 17.74 18 16.97Z" fill="#D0D0D0"/>
</svg>
