<svg width="18" height="20" viewBox="0 0 18 20" fill="none" xmlns="http://www.w3.org/2000/svg">
<path d="M0 11C0 13.3869 0.948211 15.6761 2.63604 17.364C4.32387 19.0518 6.61305 20 9 20C9 17.6131 8.05179 15.3239 6.36396 13.636C4.67613 11.9482 2.38695 11 0 11ZM2.44 13.44C4.35 14.15 5.85 15.65 6.56 17.56C4.65 16.85 3.15 15.35 2.44 13.44ZM9 20C11.3869 20 13.6761 19.0518 15.364 17.364C17.0518 15.6761 18 13.3869 18 11C15.6131 11 13.3239 11.9482 11.636 13.636C9.94821 15.3239 9 17.6131 9 20ZM11.42 17.57C12.11 15.64 13.64 14.11 15.57 13.42C14.86 15.34 13.34 16.86 11.42 17.57ZM9 12C10.5913 12 12.1174 11.3679 13.2426 10.2426C14.3679 9.11742 15 7.5913 15 6V1C14.26 1 13.53 1.12 12.84 1.39C12.29 1.62 11.8 1.96 11.39 2.39L9 0L6.61 2.39C6.2 1.96 5.71 1.62 5.16 1.39C4.47 1.12 3.74 1 3 1V6C3 7.5913 3.63214 9.11742 4.75736 10.2426C5.88258 11.3679 7.4087 12 9 12ZM5 3.61L6.57 5.26L9 2.83L11.43 5.26L13 3.61V6C13 7.06087 12.5786 8.07828 11.8284 8.82843C11.0783 9.57857 10.0609 10 9 10C7.93913 10 6.92172 9.57857 6.17157 8.82843C5.42143 8.07828 5 7.06087 5 6V3.61Z" fill="#D0D0D0"/>
</svg>
