<svg width="895" height="895" viewBox="0 0 895 895" fill="none" xmlns="http://www.w3.org/2000/svg">
<path d="M347.201 300.817C360.042 313.662 360.042 334.416 347.201 347.261C340.78 353.684 332.394 356.874 324.008 356.874C315.621 356.874 307.191 353.684 300.814 347.261L65.6496 112.115V274.077C65.6496 292.253 50.9734 306.933 32.803 306.933C14.6761 306.933 0 292.253 0 274.12V32.856C0 28.5742 0.873586 24.336 2.53336 20.3163C5.85302 12.277 12.2737 5.85387 20.3102 2.53411C24.3287 0.873783 28.5655 0 32.8461 0H274.038C292.208 0 306.885 14.6806 306.885 32.8565C306.885 51.0324 292.208 65.713 274.038 65.713L112.125 65.6693L347.201 300.817ZM300.771 547.507L65.6507 782.697V620.691C65.6507 602.515 50.9746 587.835 32.8041 587.835C14.6773 587.835 0.0011197 602.515 0.0011197 620.691V862C0.0011197 866.282 0.874706 870.52 2.53448 874.54C5.85414 882.579 12.2748 889.002 20.3113 892.322C24.3299 893.939 28.5666 894.813 32.8473 894.813H274.039C292.21 894.813 306.886 880.132 306.886 861.956C306.886 843.78 292.21 829.1 274.039 829.1L112.082 829.143L347.157 593.997C359.998 581.152 359.998 560.398 347.157 547.553C334.359 534.664 313.612 534.662 300.771 547.507ZM861.695 587.835C843.525 587.835 828.849 602.515 828.849 620.691V782.697L593.807 547.507C580.966 534.661 560.218 534.661 547.377 547.507C534.536 560.352 534.536 581.106 547.377 593.951L782.452 829.097L620.495 829.141C602.324 829.141 587.648 843.821 587.648 861.997C587.692 880.129 602.368 894.81 620.495 894.81H861.687C865.967 894.81 870.204 893.936 874.222 892.276C882.259 888.955 888.681 882.532 891.999 874.494C893.659 870.474 894.533 866.236 894.533 861.954V620.689C894.533 602.513 879.866 587.835 861.695 587.835ZM892.008 20.3208C888.689 12.2814 882.268 5.85835 874.231 2.53859C870.213 0.878263 865.976 0.00446948 861.695 0.00446948H620.504C602.333 0.00446948 587.657 14.685 587.657 32.8609C587.657 51.0369 602.333 65.7174 620.504 65.7174H782.416L547.375 300.83C534.533 313.675 534.533 334.429 547.375 347.274C553.795 353.697 562.182 356.887 570.568 356.887C578.954 356.887 587.384 353.697 593.761 347.274L828.837 112.128V274.09C828.837 292.266 843.513 306.946 861.683 306.946C879.854 306.946 894.53 292.265 894.53 274.133V32.8688C894.53 28.587 893.656 24.3488 891.996 20.3291L892.008 20.3208Z" fill="#F5F5F5"/>
</svg>
