<svg width="243" height="28" viewBox="0 0 243 28" fill="none" xmlns="http://www.w3.org/2000/svg">
<g clip-path="url(#clip0_1_47084)">
<path d="M242.02 27.2H0V0H242.02V27.2ZM0.5 26.7H241.52V0.5H0.5V26.7Z" fill="#D8B5FE"/>
<path d="M83.38 26.68H82.88V14.9H0.25V14.4H82.88V0.25H83.38V26.68Z" fill="#D8B5FE"/>
<path d="M23.5101 23.39H23.0701V18.2H23.5101V23.39Z" fill="#D8B5FE"/>
<path d="M28.63 23.39H28.19L25.21 18.95V23.39H24.77V18.2H25.21L28.2 22.64V18.2H28.63V23.39Z" fill="#D8B5FE"/>
<path d="M32.74 22.11C32.74 21.82 32.6399 21.6 32.4399 21.43C32.2399 21.26 31.87 21.1 31.33 20.95C30.79 20.8 30.4 20.63 30.15 20.46C29.8 20.21 29.62 19.88 29.62 19.47C29.62 19.06 29.78 18.75 30.11 18.5C30.44 18.25 30.85 18.13 31.36 18.13C31.7 18.13 32.0099 18.2 32.2799 18.33C32.5499 18.46 32.76 18.65 32.91 18.89C33.06 19.13 33.13 19.39 33.13 19.68H32.6899C32.6899 19.32 32.57 19.04 32.33 18.82C32.09 18.61 31.76 18.5 31.35 18.5C30.94 18.5 30.64 18.59 30.4 18.77C30.16 18.95 30.0499 19.18 30.0499 19.46C30.0499 19.72 30.16 19.94 30.37 20.11C30.58 20.28 30.9199 20.42 31.3899 20.55C31.8599 20.68 32.21 20.81 32.45 20.95C32.69 21.09 32.87 21.25 32.99 21.44C33.11 21.63 33.1699 21.86 33.1699 22.11C33.1699 22.52 33.01 22.85 32.68 23.09C32.35 23.33 31.9199 23.46 31.3899 23.46C31.0199 23.46 30.6899 23.39 30.3799 23.26C30.0799 23.13 29.84 22.95 29.69 22.71C29.54 22.47 29.45 22.21 29.45 21.9H29.8899C29.8899 22.27 30.0299 22.55 30.2999 22.77C30.5699 22.98 30.9399 23.09 31.3899 23.09C31.7899 23.09 32.12 23 32.36 22.82C32.61 22.64 32.7299 22.4 32.7299 22.11H32.74Z" fill="#D8B5FE"/>
<path d="M34.56 18.2L36.47 22.78L38.39 18.2H38.97V23.39H38.53V21.13L38.57 18.81L36.64 23.39H36.3L34.38 18.83L34.42 21.11V23.38H33.98V18.19H34.56V18.2Z" fill="#D8B5FE"/>
<path d="M44.0101 23.39H43.5701L40.5901 18.95V23.39H40.1501V18.2H40.5901L43.5801 22.64V18.2H44.0101V23.39Z" fill="#D8B5FE"/>
<path d="M48.86 21.77C48.8 22.32 48.61 22.73 48.27 23.02C47.94 23.31 47.5 23.45 46.95 23.45C46.57 23.45 46.22 23.35 45.93 23.16C45.64 22.97 45.41 22.7 45.24 22.34C45.08 21.99 45 21.58 44.99 21.13V20.46C44.99 20 45.07 19.59 45.23 19.23C45.39 18.87 45.62 18.6 45.93 18.4C46.23 18.21 46.58 18.11 46.98 18.11C47.54 18.11 47.97 18.26 48.3 18.56C48.62 18.86 48.81 19.27 48.86 19.8H48.42C48.31 18.92 47.83 18.48 46.98 18.48C46.51 18.48 46.13 18.66 45.86 19.01C45.58 19.36 45.44 19.85 45.44 20.47V21.1C45.44 21.7 45.58 22.18 45.85 22.53C46.12 22.89 46.49 23.07 46.95 23.07C47.41 23.07 47.75 22.96 47.99 22.74C48.22 22.52 48.37 22.19 48.42 21.75H48.86V21.77Z" fill="#D8B5FE"/>
<path d="M59.1502 21.28H57.4402V20.92H59.1502V21.28Z" fill="#D8B5FE"/>
<path d="M70.97 21.22C70.97 21.95 70.84 22.51 70.57 22.89C70.3 23.27 69.91 23.46 69.38 23.46C68.85 23.46 68.47 23.27 68.2 22.9C67.93 22.53 67.79 21.99 67.78 21.28V20.35C67.78 19.62 67.92 19.07 68.19 18.69C68.46 18.31 68.86 18.13 69.38 18.13C69.9 18.13 70.29 18.31 70.56 18.67C70.83 19.03 70.97 19.57 70.98 20.27V21.22H70.97ZM70.54 20.29C70.54 19.7 70.44 19.25 70.25 18.94C70.06 18.64 69.76 18.48 69.37 18.48C68.98 18.48 68.7 18.63 68.5 18.93C68.3 19.23 68.21 19.67 68.2 20.25V21.27C68.2 21.86 68.3 22.31 68.5 22.63C68.7 22.94 68.99 23.1 69.38 23.1C69.77 23.1 70.05 22.95 70.24 22.64C70.44 22.33 70.53 21.89 70.54 21.29V20.29Z" fill="#D8B5FE"/>
<path d="M74.8702 21.22C74.8702 21.95 74.7402 22.51 74.4702 22.89C74.2002 23.27 73.8102 23.46 73.2802 23.46C72.7502 23.46 72.3702 23.27 72.1002 22.9C71.8302 22.53 71.6902 21.99 71.6802 21.28V20.35C71.6802 19.62 71.8202 19.07 72.0902 18.69C72.3602 18.31 72.7602 18.13 73.2802 18.13C73.8002 18.13 74.1902 18.31 74.4602 18.67C74.7302 19.03 74.8702 19.57 74.8802 20.27V21.22H74.8702ZM74.4402 20.29C74.4402 19.7 74.3402 19.25 74.1502 18.94C73.9602 18.64 73.6602 18.48 73.2702 18.48C72.8802 18.48 72.6002 18.63 72.4002 18.93C72.2002 19.23 72.1102 19.67 72.1002 20.25V21.27C72.1002 21.86 72.2002 22.31 72.4002 22.63C72.6002 22.94 72.8902 23.1 73.2802 23.1C73.6702 23.1 73.9502 22.95 74.1402 22.64C74.3402 22.33 74.4302 21.89 74.4402 21.29V20.29Z" fill="#D8B5FE"/>
<path d="M77.62 23.39H77.19V18.71L75.78 19.23V18.83L77.55 18.17H77.62V23.38V23.39Z" fill="#D8B5FE"/>
<path d="M8.26989 5.45999L5.05989 10.11H4.63989V9.59999L7.84989 4.95999H8.26989V5.44999V5.45999ZM7.97989 4.96999V5.52999H4.68989V4.96999H7.97989ZM8.37989 9.55999V10.11H4.89989V9.55999H8.37989Z" fill="#D8B5FE"/>
<path d="M9.94001 4.97V10.11H9.26001V4.97H9.94001ZM12.62 7.18V7.73H9.84001V7.18H12.62ZM13.22 4.97V10.11H12.54V4.97H13.22Z" fill="#D8B5FE"/>
<path d="M15.16 4.97V10.11H14.48V4.97H15.16Z" fill="#D8B5FE"/>
<path d="M17.0699 4.97V10.11H16.3899V4.97H17.0699ZM17.7899 10.11H16.7199V9.56H17.7899C18.1599 9.56 18.4599 9.48 18.7099 9.33C18.9599 9.18 19.1399 8.96 19.2599 8.68C19.3799 8.4 19.4499 8.07 19.4499 7.7V7.39C19.4499 7.1 19.4099 6.83 19.3399 6.6C19.2699 6.37 19.1699 6.18 19.0299 6.02C18.8899 5.86 18.7299 5.74 18.5299 5.66C18.3299 5.58 18.1099 5.54 17.8499 5.54H16.6899V4.98H17.8499C18.1899 4.98 18.4899 5.04 18.7699 5.15C19.0499 5.26 19.2899 5.42 19.4899 5.63C19.6899 5.84 19.8499 6.1 19.9499 6.39C20.0499 6.68 20.1099 7.02 20.1099 7.39V7.7C20.1099 8.07 20.0599 8.41 19.9499 8.7C19.8399 9 19.6899 9.25 19.4799 9.46C19.2799 9.67 19.0299 9.83 18.7399 9.94C18.4499 10.05 18.1299 10.11 17.7699 10.11H17.7899Z" fill="#D8B5FE"/>
<path d="M21.8199 4.97V10.11H21.1399V4.97H21.8199ZM24.9299 4.97L22.7899 7.37L21.5899 8.62L21.4799 7.89L22.3799 6.89L24.1099 4.97H24.9299ZM24.2699 10.11L22.3699 7.6L22.7799 7.06L25.0899 10.11H24.2799H24.2699Z" fill="#D8B5FE"/>
<path d="M29.64 7.37999V7.69999C29.64 8.08999 29.59 8.42999 29.49 8.73999C29.39 9.04999 29.25 9.30999 29.07 9.51999C28.89 9.72999 28.67 9.89999 28.42 10.01C28.17 10.12 27.88 10.18 27.57 10.18C27.26 10.18 26.99 10.12 26.73 10.01C26.48 9.89999 26.26 9.72999 26.07 9.51999C25.89 9.30999 25.74 9.04999 25.64 8.73999C25.54 8.42999 25.49 8.08999 25.49 7.69999V7.37999C25.49 6.98999 25.54 6.64999 25.64 6.33999C25.74 6.02999 25.88 5.76999 26.07 5.55999C26.26 5.34999 26.47 5.17999 26.73 5.06999C26.98 4.95999 27.26 4.89999 27.57 4.89999C27.88 4.89999 28.17 4.95999 28.42 5.06999C28.67 5.17999 28.89 5.34999 29.07 5.55999C29.25 5.76999 29.39 6.03999 29.49 6.33999C29.59 6.64999 29.64 6.98999 29.64 7.37999ZM28.97 7.69999V7.36999C28.97 7.05999 28.94 6.78999 28.88 6.55999C28.82 6.32999 28.73 6.12999 28.61 5.96999C28.49 5.80999 28.34 5.68999 28.17 5.60999C28 5.52999 27.8 5.48999 27.58 5.48999C27.36 5.48999 27.18 5.52999 27.01 5.60999C26.84 5.68999 26.69 5.80999 26.57 5.96999C26.45 6.12999 26.36 6.32999 26.29 6.55999C26.22 6.79999 26.19 7.06999 26.19 7.36999V7.69999C26.19 8.00999 26.22 8.27999 26.29 8.51999C26.36 8.75999 26.45 8.95999 26.57 9.11999C26.69 9.27999 26.84 9.39999 27.01 9.48999C27.18 9.57999 27.37 9.60999 27.58 9.60999C27.79 9.60999 28 9.56999 28.17 9.48999C28.34 9.40999 28.49 9.28999 28.61 9.11999C28.73 8.95999 28.82 8.75999 28.88 8.51999C28.94 8.27999 28.97 8.00999 28.97 7.69999Z" fill="#D8B5FE"/>
<path d="M55.95 4.97V10.11H55.26L52.67 6.14V10.11H51.99V4.97H52.67L55.27 8.95V4.97H55.94H55.95Z" fill="#D8B5FE"/>
<path d="M59.0599 5.42999L57.3599 10.12H56.6599L58.6199 4.97999H59.0699V5.43999L59.0599 5.42999ZM60.3999 8.20999V8.76999H57.5099V8.20999H60.3999ZM60.4799 10.11L58.7699 5.41999V4.95999H59.2099L61.1799 10.1H60.4799V10.11Z" fill="#D8B5FE"/>
<path d="M64.6098 8.81C64.6098 8.69 64.5898 8.58 64.5598 8.49C64.5198 8.4 64.4598 8.31 64.3698 8.24C64.2798 8.16 64.1498 8.09 63.9898 8.02C63.8298 7.95 63.6298 7.88 63.3898 7.81C63.1398 7.73 62.9098 7.65 62.6998 7.56C62.4898 7.47 62.3198 7.36 62.1698 7.24C62.0198 7.12 61.9098 6.98 61.8298 6.83C61.7498 6.67 61.7098 6.5 61.7098 6.3C61.7098 6.1 61.7498 5.91 61.8298 5.75C61.9098 5.58 62.0298 5.43 62.1898 5.31C62.3398 5.18 62.5298 5.09 62.7398 5.02C62.9498 4.95 63.1898 4.91 63.4598 4.91C63.8498 4.91 64.1698 4.98 64.4398 5.13C64.7098 5.28 64.9198 5.47 65.0598 5.71C65.1998 5.95 65.2698 6.2 65.2698 6.47H64.5898C64.5898 6.28 64.5498 6.11 64.4698 5.96C64.3898 5.81 64.2598 5.69 64.0998 5.61C63.9298 5.52 63.7198 5.48 63.4598 5.48C63.1998 5.48 63.0198 5.52 62.8598 5.59C62.6998 5.66 62.5798 5.76 62.5098 5.89C62.4298 6.01 62.3898 6.16 62.3898 6.32C62.3898 6.43 62.4098 6.53 62.4598 6.61C62.5098 6.7 62.5798 6.78 62.6798 6.86C62.7798 6.94 62.8998 7.01 63.0598 7.07C63.2098 7.13 63.3898 7.19 63.6098 7.25C63.8998 7.33 64.1498 7.42 64.3698 7.53C64.5798 7.63 64.7598 7.74 64.8898 7.87C65.0198 8 65.1298 8.14 65.1998 8.3C65.2698 8.46 65.2998 8.64 65.2998 8.84C65.2998 9.04 65.2598 9.24 65.1698 9.41C65.0898 9.58 64.9598 9.72 64.8098 9.84C64.6598 9.96 64.4598 10.05 64.2398 10.12C64.0198 10.18 63.7698 10.22 63.4998 10.22C63.2598 10.22 63.0298 10.19 62.7998 10.12C62.5698 10.05 62.3598 9.96 62.1798 9.82C61.9898 9.69 61.8398 9.53 61.7298 9.33C61.6198 9.14 61.5598 8.91 61.5598 8.65H62.2398C62.2398 8.83 62.2698 8.98 62.3398 9.1C62.4098 9.22 62.4998 9.33 62.6198 9.41C62.7398 9.49 62.8698 9.55 63.0298 9.59C63.1798 9.63 63.3398 9.65 63.5098 9.65C63.7498 9.65 63.9498 9.62 64.1098 9.55C64.2698 9.48 64.3998 9.39 64.4898 9.27C64.5798 9.15 64.6198 9 64.6198 8.84L64.6098 8.81Z" fill="#D8B5FE"/>
<path d="M66.1699 4.97H67.8699C68.2599 4.97 68.5799 5.03 68.8499 5.15C69.1199 5.27 69.3199 5.44 69.4599 5.67C69.5999 5.9 69.6699 6.18 69.6699 6.52C69.6699 6.76 69.6199 6.97 69.5299 7.16C69.4399 7.35 69.2999 7.52 69.1199 7.65C68.9399 7.79 68.7299 7.89 68.4799 7.95L68.2899 8.02H66.6899V7.47H67.8899C68.1399 7.47 68.3399 7.43 68.4999 7.34C68.6599 7.25 68.7899 7.14 68.8699 6.99C68.9499 6.84 68.9899 6.68 68.9899 6.51C68.9899 6.31 68.9499 6.14 68.8699 5.99C68.7899 5.84 68.6699 5.73 68.4999 5.65C68.3299 5.57 68.1199 5.53 67.8599 5.53H66.8399V10.12H66.1599V4.98L66.1699 4.97ZM69.1699 10.11L67.9199 7.78H68.6299L69.8999 10.07V10.11H69.1699Z" fill="#D8B5FE"/>
<path d="M72.5299 5.42999L70.8299 10.12H70.1299L72.0899 4.97999H72.5399V5.43999L72.5299 5.42999ZM73.8699 8.20999V8.76999H70.9799V8.20999H73.8699ZM73.9599 10.11L72.2499 5.41999V4.95999H72.6899L74.6599 10.1H73.9599V10.11Z" fill="#D8B5FE"/>
<path d="M76.0299 4.97V10.11H75.3499V4.97H76.0299ZM78.4699 9.56V10.11H75.8999V9.56H78.4699Z" fill="#D8B5FE"/>
<path d="M178.5 0.25H178V26.68H178.5V0.25Z" fill="#D8B5FE"/>
<path d="M211.12 3.23001V23.57H210.42V3.23001H211.12ZM211.82 23.58V3.23001H213.39V23.57H211.82V23.58ZM214.79 3.23001V23.57H214.09V3.23001H214.79ZM215.49 23.58V3.23001H217.06V23.57H215.49V23.58ZM219.34 3.23001V23.57H218.64V3.23001H219.34Z" fill="#D8B5FE"/>
<path d="M220.04 23.58V3.23001H221.61V23.57H220.04V23.58ZM223.88 3.23001V23.57H223.18V3.23001H223.88ZM225.28 3.23001V23.57H224.58V3.23001H225.28ZM226.68 3.23001V23.57H225.98V3.23001H226.68ZM227.38 23.58V3.23001H228.95V23.57H227.38V23.58Z" fill="#D8B5FE"/>
<path d="M229.66 23.58V3.23001H231.23V23.57H229.66V23.58ZM231.93 23.58V3.23001H233.5V23.57H231.93V23.58ZM234.9 3.23001V23.57H234.2V3.23001H234.9ZM236.3 3.23001V23.57H235.6V3.23001H236.3ZM238.58 3.23001V23.57H237.88V3.23001H238.58Z" fill="#D8B5FE"/>
<path d="M181.54 3.23001V23.57H180.84V3.23001H181.54ZM182.24 23.58V3.23001H183.81V23.57H182.24V23.58ZM185.22 3.23001V23.57H184.52V3.23001H185.22ZM185.92 23.58V3.23001H187.49V23.57H185.92V23.58ZM189.76 3.23001V23.57H189.06V3.23001H189.76Z" fill="#D8B5FE"/>
<path d="M190.46 23.58V3.23001H192.03V23.57H190.46V23.58ZM194.31 3.23001V23.57H193.61V3.23001H194.31ZM195.71 3.23001V23.57H195.01V3.23001H195.71ZM197.11 3.23001V23.57H196.41V3.23001H197.11ZM197.81 23.58V3.23001H199.38V23.57H197.81V23.58Z" fill="#D8B5FE"/>
<path d="M200.08 23.58V3.23001H201.65V23.57H200.08V23.58ZM202.36 23.58V3.23001H203.93V23.57H202.36V23.58ZM205.33 3.23001V23.57H204.63V3.23001H205.33ZM206.73 3.23001V23.57H206.03V3.23001H206.73ZM209 3.23001V23.57H208.3V3.23001H209Z" fill="#D8B5FE"/>
<path d="M169.92 9.51998H169.26V5.15998L167.94 5.63998V5.04998L169.81 4.34998H169.91V9.51998H169.92Z" fill="#D8B5FE"/>
<path d="M175.21 9.51999H171.84V9.04999L173.62 7.06999C173.88 6.76999 174.07 6.52999 174.17 6.33999C174.27 6.14999 174.32 5.95999 174.32 5.75999C174.32 5.48999 174.24 5.26999 174.08 5.09999C173.92 4.92999 173.7 4.83999 173.43 4.83999C173.1 4.83999 172.85 4.92999 172.67 5.11999C172.49 5.30999 172.4 5.55999 172.4 5.88999H171.75C171.75 5.41999 171.9 5.02999 172.21 4.73999C172.52 4.44999 172.92 4.29999 173.43 4.29999C173.91 4.29999 174.29 4.42999 174.56 4.67999C174.83 4.92999 174.98 5.25999 174.98 5.67999C174.98 6.18999 174.66 6.78999 174.01 7.48999L172.63 8.97999H175.21V9.50999V9.51999Z" fill="#D8B5FE"/>
<path d="M89.6201 21.29C89.6201 22.05 89.4901 22.62 89.2301 23C88.9701 23.38 88.5601 23.56 88.0001 23.56C87.4401 23.56 87.0401 23.38 86.7801 23.01C86.5201 22.65 86.3801 22.1 86.3701 21.38V20.51C86.3701 19.75 86.5001 19.19 86.7601 18.83C87.0201 18.46 87.4301 18.28 87.9901 18.28C88.5501 18.28 88.9501 18.46 89.2101 18.81C89.4701 19.16 89.6101 19.71 89.6101 20.45V21.3L89.6201 21.29ZM88.9701 20.39C88.9701 19.84 88.8901 19.43 88.7401 19.18C88.5901 18.93 88.3401 18.8 88.0001 18.8C87.6601 18.8 87.4201 18.93 87.2701 19.18C87.1201 19.43 87.0401 19.82 87.0301 20.34V21.39C87.0301 21.95 87.1101 22.36 87.2701 22.62C87.4301 22.89 87.6801 23.02 88.0001 23.02C88.3201 23.02 88.5601 22.9 88.7201 22.65C88.8801 22.4 88.9601 22.01 88.9701 21.47V20.4V20.39Z" fill="#D8B5FE"/>
<path d="M93.6802 21.29C93.6802 22.05 93.5502 22.62 93.2902 23C93.0302 23.38 92.6202 23.56 92.0602 23.56C91.5002 23.56 91.1002 23.38 90.8402 23.01C90.5802 22.65 90.4402 22.1 90.4302 21.38V20.51C90.4302 19.75 90.5602 19.19 90.8202 18.83C91.0802 18.46 91.4902 18.28 92.0502 18.28C92.6102 18.28 93.0102 18.46 93.2702 18.81C93.5302 19.16 93.6602 19.71 93.6702 20.45V21.3L93.6802 21.29ZM93.0302 20.39C93.0302 19.84 92.9502 19.43 92.8002 19.18C92.6402 18.93 92.4002 18.8 92.0602 18.8C91.7202 18.8 91.4802 18.93 91.3302 19.18C91.1802 19.43 91.1002 19.82 91.0902 20.34V21.39C91.0902 21.95 91.1702 22.36 91.3302 22.62C91.4902 22.89 91.7402 23.02 92.0602 23.02C92.3802 23.02 92.6202 22.9 92.7802 22.65C92.9402 22.4 93.0202 22.01 93.0302 21.47V20.4V20.39Z" fill="#D8B5FE"/>
<path d="M96.6702 23.48H96.0102V19.12L94.6902 19.6V19.01L96.5602 18.31H96.6602V23.48H96.6702Z" fill="#D8B5FE"/>
<path d="M78.5101 12.24H51.9501C50.8001 12.24 49.8701 11.31 49.8701 10.16V4.93001C49.8701 3.78001 50.8001 2.85001 51.9501 2.85001H78.5101C79.6601 2.85001 80.5901 3.78001 80.5901 4.93001V10.16C80.5901 11.31 79.6601 12.24 78.5101 12.24ZM51.9501 3.09001C50.9401 3.09001 50.1201 3.91001 50.1201 4.92001V10.15C50.1201 11.16 50.9401 11.98 51.9501 11.98H78.5101C79.5201 11.98 80.3401 11.16 80.3401 10.15V4.92001C80.3401 3.91001 79.5201 3.09001 78.5101 3.09001H51.9501Z" fill="#D8B5FE"/>
<path d="M143.22 4.31C140.5 4.31 138.03 5.41 136.23 7.19C134.5 7.45 132.76 7.41 131.06 7.07C129.61 5.69 127.74 4.74 125.66 4.43C125.39 4.36 125.11 4.31 124.82 4.31C124.74 4.31 124.67 4.32 124.59 4.33C124.46 4.33 124.33 4.31 124.19 4.31C118.71 4.31 114.25 8.77 114.25 14.25C114.25 19.73 118.71 24.19 124.19 24.19C124.32 24.19 124.45 24.18 124.59 24.17C124.67 24.17 124.74 24.19 124.82 24.19C125.11 24.19 125.38 24.14 125.66 24.07C127.87 23.74 129.85 22.69 131.34 21.15C132.96 20.93 134.59 20.97 136.2 21.27C138 23.07 140.49 24.19 143.23 24.19C148.71 24.19 153.17 19.73 153.17 14.25C153.17 8.77 148.71 4.31 143.23 4.31H143.22ZM152.36 13.86H148.77C148.69 10.2 147.57 7.11 145.9 5.5C149.52 6.61 152.19 9.92 152.36 13.86ZM143.22 23.41C140.66 23.41 138.57 19.51 138.46 14.65H147.98C147.87 19.52 145.78 23.41 143.22 23.41ZM138.46 13.86C138.57 8.99 140.66 5.1 143.22 5.1C145.78 5.1 147.87 9 147.98 13.86H138.46ZM140.55 5.5C138.88 7.11 137.75 10.2 137.68 13.86H134.12C134.12 13.77 134.12 13.68 134.11 13.59C134.39 9.77 137.01 6.58 140.55 5.5ZM134.01 8.15C134.49 8.15 134.96 8.12 135.44 8.08C134.67 9.05 134.07 10.16 133.7 11.38C133.32 10.13 132.7 8.98 131.9 7.99C132.6 8.08 133.3 8.15 134.01 8.15ZM133.31 13.59C133.31 13.68 133.3 13.77 133.3 13.86H130.37C130.3 10.45 129.31 7.54 127.83 5.85C130.88 7.18 133.07 10.12 133.32 13.59H133.31ZM125.5 23.3C125.21 23.34 124.91 23.37 124.6 23.38C122.14 23.17 120.16 19.37 120.05 14.64H129.57C129.47 19.06 127.73 22.68 125.49 23.3H125.5ZM120.06 13.86C120.17 9.13 122.14 5.33 124.61 5.12C124.91 5.13 125.21 5.16 125.51 5.2C127.75 5.82 129.49 9.43 129.59 13.86H120.07H120.06ZM122.4 5.27C120.59 6.8 119.35 10.01 119.27 13.85H115.06C115.24 9.59 118.34 6.08 122.4 5.27ZM115.06 14.65H119.27C119.35 18.49 120.59 21.7 122.4 23.23C118.33 22.42 115.24 18.91 115.06 14.65ZM127.82 22.65C129.31 20.97 130.29 18.05 130.36 14.64H133.29C133.29 14.73 133.29 14.82 133.3 14.91C133.15 17.02 132.28 18.93 130.94 20.4C130.93 20.4 130.92 20.4 130.91 20.4V20.43C130.05 21.37 129 22.13 127.82 22.65ZM132.09 20.27C132.81 19.34 133.36 18.28 133.71 17.12C134.07 18.31 134.65 19.39 135.39 20.35C134.29 20.21 133.19 20.18 132.09 20.27ZM134.1 14.91C134.1 14.82 134.11 14.73 134.11 14.64H137.67C137.75 18.3 138.87 21.39 140.54 23C137 21.91 134.37 18.73 134.1 14.91ZM145.9 23C147.57 21.39 148.69 18.3 148.77 14.64H152.36C152.19 18.58 149.53 21.89 145.9 23Z" fill="#D8B5FE"/>
<path d="M167.39 17.52V16.44H168.47L173.62 21.6V16.44H175.14V24.19H167.39V22.67H172.54L167.39 17.52Z" fill="#D8B5FE"/>
<path d="M94.02 9.86V10.94H92.95L87.79 5.79V10.94H86.27V3.19H94.02V4.71H88.87L94.02 9.86Z" fill="#D8B5FE"/>
<path d="M2.47998 21.02C2.53998 22.47 3.59998 23.67 4.98998 23.95C4.36998 23.43 3.94998 22.33 3.91998 21.02H2.47998Z" fill="#D8B5FE"/>
<path d="M4.97997 17.82C3.58997 18.1 2.53997 19.3 2.46997 20.75H3.90997C3.93997 19.44 4.35997 18.34 4.97997 17.82Z" fill="#D8B5FE"/>
<path d="M7.42993 20.75C7.39993 19.24 6.79993 18.01 6.03993 17.8C5.93993 17.79 5.83993 17.78 5.72993 17.77C4.88993 17.84 4.20993 19.14 4.17993 20.75H7.42993Z" fill="#D8B5FE"/>
<path d="M4.17993 21.02C4.21993 22.63 4.88993 23.93 5.72993 24C5.82993 24 5.92993 23.99 6.03993 23.97C6.80993 23.76 7.39993 22.53 7.42993 21.02H4.17993Z" fill="#D8B5FE"/>
<path d="M9.42997 18.78C9.26997 18.79 9.09997 18.8 8.93997 18.8C8.69997 18.8 8.45997 18.78 8.21997 18.75C8.48997 19.09 8.70997 19.48 8.82997 19.91C8.95997 19.5 9.15997 19.12 9.41997 18.78H9.42997Z" fill="#D8B5FE"/>
<path d="M8.97997 20.75H10.19C10.22 19.5 10.6 18.45 11.17 17.9C9.95997 18.27 9.06997 19.36 8.96997 20.66C8.96997 20.69 8.96997 20.72 8.96997 20.75H8.97997Z" fill="#D8B5FE"/>
<path d="M8.70008 20.75C8.70008 20.75 8.70008 20.69 8.70008 20.66C8.61008 19.48 7.87008 18.47 6.83008 18.02C7.34008 18.59 7.67008 19.59 7.70008 20.75H8.70008Z" fill="#D8B5FE"/>
<path d="M13.71 20.75C13.67 19.09 12.96 17.76 12.09 17.76C11.22 17.76 10.5 19.09 10.47 20.75H13.72H13.71Z" fill="#D8B5FE"/>
<path d="M8.70008 21.02H7.70008C7.68008 22.18 7.34008 23.18 6.83008 23.75C7.23008 23.57 7.59008 23.31 7.89008 22.99C7.89008 22.99 7.89008 22.98 7.90008 22.98C8.36008 22.48 8.65008 21.83 8.70008 21.11C8.70008 21.08 8.70008 21.05 8.70008 21.02Z" fill="#D8B5FE"/>
<path d="M13 23.87C14.24 23.49 15.15 22.36 15.2 21.02H13.98C13.95 22.27 13.57 23.32 13 23.87Z" fill="#D8B5FE"/>
<path d="M13 17.9C13.57 18.45 13.95 19.5 13.98 20.75H15.2C15.14 19.4 14.23 18.28 13 17.9Z" fill="#D8B5FE"/>
<path d="M0.25 14.82V26.96H18.19V14.82H0.25ZM12.09 24.28C11.15 24.28 10.31 23.9 9.69 23.28C9.14 23.18 8.59 23.16 8.03 23.24C7.52 23.77 6.85 24.13 6.09 24.24C6 24.26 5.9 24.28 5.8 24.28C5.77 24.28 5.75 24.28 5.72 24.28C5.67 24.28 5.63 24.28 5.58 24.28C3.71 24.28 2.19 22.76 2.19 20.89C2.19 19.02 3.71 17.5 5.58 17.5C5.63 17.5 5.67 17.5 5.72 17.5C5.75 17.5 5.77 17.5 5.8 17.5C5.9 17.5 5.99 17.52 6.09 17.54C6.8 17.65 7.44 17.97 7.93 18.44C8.51 18.55 9.11 18.57 9.7 18.48C10.31 17.87 11.16 17.5 12.09 17.5C13.96 17.5 15.48 19.02 15.48 20.89C15.48 22.76 13.96 24.28 12.09 24.28Z" fill="#D8B5FE"/>
<path d="M8.29004 22.94C8.67004 22.91 9.04004 22.92 9.42004 22.97C9.17004 22.64 8.97004 22.27 8.85004 21.87C8.73004 22.26 8.54004 22.62 8.30004 22.94H8.29004Z" fill="#D8B5FE"/>
<path d="M10.46 21.02C10.5 22.68 11.21 24.01 12.08 24.01C12.95 24.01 13.67 22.68 13.7 21.02H10.45H10.46Z" fill="#D8B5FE"/>
<path d="M8.97998 21.02C8.97998 21.02 8.97998 21.08 8.97998 21.11C9.06998 22.41 9.96998 23.5 11.18 23.87C10.61 23.32 10.23 22.27 10.2 21.02H8.98998H8.97998Z" fill="#D8B5FE"/>
</g>
<defs>
<clipPath id="clip0_1_47084">
<rect width="242.02" height="27.2" fill="white"/>
</clipPath>
</defs>
</svg>
