<svg width="22" height="20" viewBox="0 0 22 20" fill="none" xmlns="http://www.w3.org/2000/svg">
<path d="M20.14 11.84L20.12 11.85C20.35 12.13 20.55 12.44 20.7 12.77L20.79 12.96C21.5 14.65 21 16.6 19.69 17.82C18.5 18.91 16.84 19.2 15.3 19C13.84 18.82 12.5 17.9 11.73 16.63C11.5 16.24 11.3 15.8 11.2 15.35C11.07 15 11.03 14.62 11 14.25C10.91 12.65 11.55 10.95 12.76 9.95C12.21 11.16 12.34 12.67 13.15 13.72L13.26 13.85C13.4 13.97 13.57 14 13.73 13.94C13.88 13.88 14 13.73 14 13.57L13.93 13.33C13.05 11 13.79 8.3 15.66 6.77C16.17 6.35 16.8 5.97 17.46 5.8C16.78 7.16 17 8.94 18.09 10C18.55 10.5 19.11 10.79 19.58 11.23L20.14 11.84ZM17.86 16.5L17.85 16.47C18.3 16.08 18.55 15.41 18.53 14.81L18.5 14.5C18.3 13.5 17.43 13.16 16.87 12.43C16.7 12.21 16.55 11.93 16.44 11.65C16.22 12.15 16.2 12.62 16.29 13.16C16.39 13.73 16.61 14.22 16.5 14.81C16.34 15.46 15.83 16.11 14.94 16.32C15.44 16.81 16.25 17.2 17.06 16.92C17.32 16.85 17.65 16.66 17.86 16.5ZM7 18V15H0L5 10H2L7 5H4L9 0L14 5H11L12.82 6.82C10.55 8.06 9 10.59 9 13.5C9 15.19 9.5 16.75 10.4 18H7Z" fill="#D0D0D0"/>
</svg>
