<svg width="126" height="39" viewBox="0 0 126 39" fill="none" xmlns="http://www.w3.org/2000/svg">
<rect x="1" y="1" width="124" height="37" rx="7" stroke="#F0F6FC" stroke-width="2"/>
<path d="M24.4531 20.2656C24.4531 23.3359 22.5938 25.1953 19.4531 25.1953C16.0859 25.1953 14.0234 22.9922 14.0234 19.3281C14.0234 15.7188 16.0859 13.5312 19.3984 13.5312C22.0312 13.5312 24.0156 15.0859 24.3516 17.3672H21.9844C21.6406 16.1875 20.6797 15.4844 19.4062 15.4844C17.5469 15.4844 16.4297 16.8984 16.4297 19.2969C16.4297 21.7422 17.6172 23.2344 19.4922 23.2344C21.0312 23.2344 22.1016 22.2891 22.1484 20.8906L22.1562 20.7109H19.7031V18.9922H24.4531V20.2656ZM33.4844 23.0469V25H26.0156V13.7266H33.4844V15.6719H28.375V18.3906H33.1953V20.2031H28.375V23.0469H33.4844ZM40.2422 25H37.8828V15.6719H34.625V13.7266H43.5078V15.6719H40.2422V25ZM55.2734 23.0469V25H47.9844V13.7266H50.3438V23.0469H55.2734ZM59.0312 25H56.6719V13.7266H59.0312V25ZM65.8906 25.1953C62.6094 25.1953 60.5547 23 60.5547 19.3594C60.5547 15.7266 62.625 13.5312 65.8906 13.5312C68.6016 13.5312 70.6641 15.25 70.8438 17.7734H68.5469C68.3281 16.3906 67.2656 15.4844 65.8906 15.4844C64.1094 15.4844 62.9609 16.9766 62.9609 19.3516C62.9609 21.7578 64.0938 23.2422 65.8984 23.2422C67.2969 23.2422 68.3047 22.4219 68.5547 21.0859H70.8516C70.5859 23.6016 68.6562 25.1953 65.8906 25.1953ZM79.7812 23.0469V25H72.3125V13.7266H79.7812V15.6719H74.6719V18.3906H79.4922V20.2031H74.6719V23.0469H79.7812ZM83.7422 25H81.4844V13.7266H83.4531L88.7188 21.0703H88.7812V13.7266H91.0391V25H89.0859L83.8125 17.6172H83.7422V25ZM97.9062 25.1953C94.625 25.1953 92.5703 23 92.5703 19.3594C92.5703 15.7266 94.6406 13.5312 97.9062 13.5312C100.617 13.5312 102.68 15.25 102.859 17.7734H100.562C100.344 16.3906 99.2812 15.4844 97.9062 15.4844C96.125 15.4844 94.9766 16.9766 94.9766 19.3516C94.9766 21.7578 96.1094 23.2422 97.9141 23.2422C99.3125 23.2422 100.32 22.4219 100.57 21.0859H102.867C102.602 23.6016 100.672 25.1953 97.9062 25.1953ZM111.797 23.0469V25H104.328V13.7266H111.797V15.6719H106.688V18.3906H111.508V20.2031H106.688V23.0469H111.797Z" fill="#F0F6FC"/>
</svg>
