<svg width="20" height="20" viewBox="0 0 20 20" fill="none" xmlns="http://www.w3.org/2000/svg">
<path d="M16.1157 14.6887C15.2057 16.1987 14.0557 15.7187 12.9757 15.0787C11.8957 14.4387 10.8757 13.6687 10.2257 14.5787C9.51567 15.3587 10.0657 16.6087 10.3457 17.7087C10.6257 18.8187 10.6457 19.7787 8.87567 19.9887C7.47567 19.7987 7.55567 18.6387 7.78567 17.4087C8.01567 16.1787 8.37567 14.8787 7.47567 14.4187C6.75567 13.9387 6.25567 14.7687 5.62567 15.5887C4.97567 16.3987 4.23567 17.1887 3.01567 16.6087C1.91567 15.6987 2.33567 15.1687 2.91567 14.4887C3.49567 13.8087 4.24567 12.8987 3.81567 11.2987C3.63567 10.6487 2.73567 10.7987 1.84567 10.7787C0.975667 10.7587 0.0956675 10.5787 0.00566751 9.27874C-0.0643325 8.48874 0.525668 8.16874 1.13567 7.91874C1.75567 7.66874 2.38567 7.48874 2.39567 6.85874C2.42567 6.24874 2.01567 5.81874 1.75567 5.36874C1.49567 4.91874 1.38567 4.44874 2.00567 3.74874C3.05567 2.88874 3.89567 3.61874 4.73567 4.40874C5.57567 5.19874 6.40567 6.02874 7.43567 5.37874C8.25567 4.83874 7.50567 3.88874 6.92567 2.95874C6.34567 2.02874 5.93567 1.13874 7.43567 0.728738C8.73567 0.368738 9.23567 1.25874 9.68567 2.28874C10.1457 3.31874 10.5457 4.48874 11.6457 4.69874C13.2157 4.98874 14.3557 3.14874 15.4457 1.68874C16.5357 0.228738 17.6057 -0.861262 18.9757 0.938738C20.4757 2.82874 19.0457 3.70874 17.3757 4.48874C15.7057 5.21874 13.7857 5.85874 14.2457 7.26874C14.5157 8.08874 15.3957 7.63874 16.3257 7.32874C17.2457 7.01874 18.2357 6.84874 18.7157 8.25874C19.2257 9.74874 18.0157 10.0887 16.6557 10.2287C15.2957 10.3687 13.7757 10.3087 13.6757 10.9887C13.5657 11.6987 14.4757 11.9887 15.2657 12.4087C16.0557 12.8387 16.7257 13.4087 16.1157 14.6887ZM18.4757 16.9887C17.5257 16.9887 17.0357 16.2487 17.0357 15.4887C17.0357 14.7287 17.5157 13.9887 18.4757 13.9887C19.4757 13.9887 19.9757 14.7287 19.9757 15.4887C19.9757 16.2487 19.4757 16.9887 18.4757 16.9887Z" fill="#D0D0D0"/>
</svg>
