<svg width="110" height="39" viewBox="0 0 110 39" fill="none" xmlns="http://www.w3.org/2000/svg">
<rect x="1" y="1" width="108" height="37" rx="7" stroke="#F0F6FC" stroke-width="2"/>
<path d="M19.25 25H16.8906V15.6719H13.6328V13.7266H22.5156V15.6719H19.25V25ZM26.1797 15.5703V19.1641H28.2109C29.3984 19.1641 30.0938 18.4844 30.0938 17.3672C30.0938 16.2734 29.3594 15.5703 28.1875 15.5703H26.1797ZM26.1797 20.875V25H23.8203V13.7266H28.4375C31.0312 13.7266 32.5156 15.0938 32.5156 17.3203C32.5156 18.7656 31.7656 20.0156 30.4688 20.5234L32.8438 25H30.1719L28.0703 20.875H26.1797ZM39.3984 25H37.0391V20.7891L33.1172 13.7266H35.6875L38.2109 18.5391H38.2656L40.7969 13.7266H43.3281L39.3984 20.7891V25ZM50.0078 25H47.6484V13.7266H50.0078V25ZM56.9375 25H54.5781V15.6719H51.3203V13.7266H60.2031V15.6719H56.9375V25ZM69.7656 13.5312C73.1016 13.5312 75.2031 15.7734 75.2031 19.3672C75.2031 22.9531 73.1016 25.1953 69.7656 25.1953C66.4219 25.1953 64.3281 22.9531 64.3281 19.3672C64.3281 15.7734 66.4219 13.5312 69.7656 13.5312ZM69.7656 15.5C67.9219 15.5 66.7344 17 66.7344 19.3672C66.7344 21.7266 67.9141 23.2188 69.7656 23.2188C71.6094 23.2188 72.7891 21.7266 72.7891 19.3672C72.7891 17 71.6094 15.5 69.7656 15.5ZM79.0859 13.7266V20.7812C79.0859 22.2266 79.9375 23.1719 81.4531 23.1719C82.9609 23.1719 83.8125 22.2266 83.8125 20.7812V13.7266H86.1719V21.0156C86.1719 23.5 84.3359 25.1953 81.4531 25.1953C78.5625 25.1953 76.7266 23.5 76.7266 21.0156V13.7266H79.0859ZM93.1094 25H90.75V15.6719H87.4922V13.7266H96.375V15.6719H93.1094V25Z" fill="#F0F6FC"/>
</svg>
